HIERARCHY
ROOT Hips
{
	OFFSET 0.000000 83.214638 0.000000
	CHANNELS 6 Xposition Yposition Zposition Xrotation Yrotation Zrotation
	JOINT Pelvis
	{
		OFFSET 0.000000 0.000000 0.000000
		CHANNELS 3 Xrotation Yrotation Zrotation
		JOINT LeftUpLeg
		{
			OFFSET 8.479700 -4.795502 -0.379100
			CHANNELS 3 Xrotation Yrotation Zrotation
			JOINT LeftLeg
			{
				OFFSET 0.024144 -32.555107 0.112900
				CHANNELS 3 Xrotation Yrotation Zrotation
				JOINT LeftFoot
				{
					OFFSET -0.024144 -32.638630 -3.012600
					CHANNELS 3 Xrotation Yrotation Zrotation
					JOINT LeftToeBase
					{
						OFFSET 0.970200 -13.225400 11.864200
						CHANNELS 3 Xrotation Yrotation Zrotation
						End Site
						{
							OFFSET 0.000000 12.319262 0.000000
						}
					}
					JOINT LFootTongue
					{
						OFFSET 1.142400 -1.059800 6.665200
						CHANNELS 3 Xrotation Yrotation Zrotation
						End Site
						{
							OFFSET 0.000000 12.319262 0.000000
						}
					}
				}
				JOINT LeftPantLeg
				{
					OFFSET 0.918482 -16.533964 -2.284700
					CHANNELS 3 Xrotation Yrotation Zrotation
					End Site
					{
						OFFSET 0.350399 24.744368 0.000000
					}
				}
			}
		}
		JOINT RightUpLeg
		{
			OFFSET -8.479700 -4.795502 -0.379100
			CHANNELS 3 Xrotation Yrotation Zrotation
			JOINT RightLeg
			{
				OFFSET -0.023144 -32.555092 0.112900
				CHANNELS 3 Xrotation Yrotation Zrotation
				JOINT RightFoot
				{
					OFFSET 0.023144 -32.638641 -3.012700
					CHANNELS 3 Xrotation Yrotation Zrotation
					JOINT RightToeBase
					{
						OFFSET -0.970200 -13.225400 11.864200
						CHANNELS 3 Xrotation Yrotation Zrotation
						End Site
						{
							OFFSET 0.000000 12.319244 0.000000
						}
					}
					JOINT RFootTongue
					{
						OFFSET -1.142200 -1.059800 6.665200
						CHANNELS 3 Xrotation Yrotation Zrotation
						End Site
						{
							OFFSET 0.000000 12.319243 0.000000
						}
					}
				}
				JOINT RightPantLeg
				{
					OFFSET -0.919482 -16.533978 -2.284800
					CHANNELS 3 Xrotation Yrotation Zrotation
					End Site
					{
						OFFSET -0.350400 24.744419 0.000000
					}
				}
			}
		}
	}
	JOINT Spine
	{
		OFFSET 0.000000 7.722000 1.166200
		CHANNELS 3 Xrotation Yrotation Zrotation
		JOINT Spine1
		{
			OFFSET 0.000000 12.024101 0.248800
			CHANNELS 3 Xrotation Yrotation Zrotation
			JOINT Spine2
			{
				OFFSET 0.000000 11.502998 -0.491200
				CHANNELS 3 Xrotation Yrotation Zrotation
				JOINT Neck
				{
					OFFSET 0.000000 18.430702 -3.123100
					CHANNELS 3 Xrotation Yrotation Zrotation
					JOINT Head
					{
						OFFSET 0.000000 9.051102 1.034000
						CHANNELS 3 Xrotation Yrotation Zrotation
						JOINT HairB
						{
							OFFSET 0.208400 24.786102 24.822300
							CHANNELS 3 Xrotation Yrotation Zrotation
							End Site
							{
								OFFSET 0.000000 32.263779 0.000000
							}
						}
						JOINT HairA
						{
							OFFSET -7.081100 24.428299 23.196600
							CHANNELS 3 Xrotation Yrotation Zrotation
							End Site
							{
								OFFSET 0.000000 32.263779 0.000000
							}
						}
						JOINT Hat
						{
							OFFSET 16.728800 15.048294 -15.439601
							CHANNELS 3 Xrotation Yrotation Zrotation
							End Site
							{
								OFFSET 0.000000 32.263779 0.000000
							}
						}
					}
				}
				JOINT LeftShoulder
				{
					OFFSET 6.197800 13.665199 -4.064700
					CHANNELS 3 Xrotation Yrotation Zrotation
					JOINT LeftArm
					{
						OFFSET 7.778100 -0.187103 -1.709300
						CHANNELS 3 Xrotation Yrotation Zrotation
						JOINT LeftForeArm
						{
							OFFSET 22.049376 0.000000 0.000000
							CHANNELS 3 Xrotation Yrotation Zrotation
							JOINT LeftHand
							{
								OFFSET 23.009392 0.000000 0.000000
								CHANNELS 3 Xrotation Yrotation Zrotation
								JOINT LeftHandThumb1
								{
									OFFSET 3.507191 -2.063065 3.133727
									CHANNELS 3 Xrotation Yrotation Zrotation
									JOINT LeftHandThumb2
									{
										OFFSET 3.101337 -1.790558 1.790558
										CHANNELS 3 Xrotation Yrotation Zrotation
										JOINT LeftHandThumb3
										{
											OFFSET 3.058640 -1.765907 1.765906
											CHANNELS 3 Xrotation Yrotation Zrotation
											End Site
											{
												OFFSET -0.415260 3.926476 -0.049563
											}
										}
									}
								}
								JOINT LeftHandIndex1
								{
									OFFSET 11.334419 -0.901459 3.706815
									CHANNELS 3 Xrotation Yrotation Zrotation
									JOINT LeftHandIndex2
									{
										OFFSET 3.283112 0.000000 0.000000
										CHANNELS 3 Xrotation Yrotation Zrotation
										JOINT LeftHandIndex3
										{
											OFFSET 3.323853 0.000000 0.000000
											CHANNELS 3 Xrotation Yrotation Zrotation
											End Site
											{
												OFFSET -1.135597 3.097809 0.402452
											}
										}
									}
								}
								JOINT LeftHandMiddle1
								{
									OFFSET 11.335861 0.000000 0.000000
									CHANNELS 3 Xrotation Yrotation Zrotation
									JOINT LeftHandMiddle2
									{
										OFFSET 3.410492 0.000000 0.000000
										CHANNELS 3 Xrotation Yrotation Zrotation
										JOINT LeftHandMiddle3
										{
											OFFSET 3.312172 0.000000 0.000000
											CHANNELS 3 Xrotation Yrotation Zrotation
											End Site
											{
												OFFSET -1.150200 3.080154 0.400270
											}
										}
									}
								}
								JOINT LeftHandRing1
								{
									OFFSET 11.514786 -0.013176 -3.003090
									CHANNELS 3 Xrotation Yrotation Zrotation
									JOINT LeftHandRing2
									{
										OFFSET 3.053307 0.000000 0.000000
										CHANNELS 3 Xrotation Yrotation Zrotation
										JOINT LeftHandRing3
										{
											OFFSET 3.295807 0.000000 0.000000
											CHANNELS 3 Xrotation Yrotation Zrotation
											End Site
											{
												OFFSET -1.281006 3.013344 0.375733
											}
										}
									}
								}
								JOINT LeftHandPinky1
								{
									OFFSET 10.518692 -0.960396 -5.730441
									CHANNELS 3 Xrotation Yrotation Zrotation
									JOINT LeftHandPinky2
									{
										OFFSET 2.861649 0.000000 0.000000
										CHANNELS 3 Xrotation Yrotation Zrotation
										JOINT LeftHandPinky3
										{
											OFFSET 2.863380 0.000000 0.000000
											CHANNELS 3 Xrotation Yrotation Zrotation
											End Site
											{
												OFFSET -0.843597 2.711159 0.369971
											}
										}
									}
								}
							}
							JOINT LSleeve
							{
								OFFSET 6.676277 -0.344902 -1.011730
								CHANNELS 3 Xrotation Yrotation Zrotation
								End Site
								{
									OFFSET 0.000000 14.885353 0.000000
								}
							}
						}
					}
				}
				JOINT RightShoulder
				{
					OFFSET -6.197800 13.665199 -4.064700
					CHANNELS 3 Xrotation Yrotation Zrotation
					JOINT RightArm
					{
						OFFSET -7.778100 -0.187103 -1.709300
						CHANNELS 3 Xrotation Yrotation Zrotation
						JOINT RightForeArm
						{
							OFFSET -22.049376 0.000000 0.000000
							CHANNELS 3 Xrotation Yrotation Zrotation
							JOINT RightHand
							{
								OFFSET -23.009392 0.000000 0.000000
								CHANNELS 3 Xrotation Yrotation Zrotation
								JOINT RightHandThumb1
								{
									OFFSET -3.507191 -2.063065 3.133727
									CHANNELS 3 Xrotation Yrotation Zrotation
									JOINT RightHandThumb2
									{
										OFFSET -3.101337 -1.790558 1.790558
										CHANNELS 3 Xrotation Yrotation Zrotation
										JOINT RightHandThumb3
										{
											OFFSET -3.058640 -1.765907 1.765906
											CHANNELS 3 Xrotation Yrotation Zrotation
											End Site
											{
												OFFSET 0.415260 3.926476 -0.049563
											}
										}
									}
								}
								JOINT RightHandIndex1
								{
									OFFSET -11.334419 -0.901459 3.706815
									CHANNELS 3 Xrotation Yrotation Zrotation
									JOINT RightHandIndex2
									{
										OFFSET -3.283112 0.000000 0.000000
										CHANNELS 3 Xrotation Yrotation Zrotation
										JOINT RightHandIndex3
										{
											OFFSET -3.323853 0.000000 0.000000
											CHANNELS 3 Xrotation Yrotation Zrotation
											End Site
											{
												OFFSET 1.135597 3.097809 0.402452
											}
										}
									}
								}
								JOINT RightHandMiddle1
								{
									OFFSET -11.335861 0.000000 0.000000
									CHANNELS 3 Xrotation Yrotation Zrotation
									JOINT RightHandMiddle2
									{
										OFFSET -3.410492 0.000000 0.000000
										CHANNELS 3 Xrotation Yrotation Zrotation
										JOINT RightHandMiddle3
										{
											OFFSET -3.312172 0.000000 0.000000
											CHANNELS 3 Xrotation Yrotation Zrotation
											End Site
											{
												OFFSET 1.150200 3.080154 0.400270
											}
										}
									}
								}
								JOINT RightHandRing1
								{
									OFFSET -11.514786 -0.013176 -3.003090
									CHANNELS 3 Xrotation Yrotation Zrotation
									JOINT RightHandRing2
									{
										OFFSET -3.053307 0.000000 0.000000
										CHANNELS 3 Xrotation Yrotation Zrotation
										JOINT RightHandRing3
										{
											OFFSET -3.295807 0.000000 0.000000
											CHANNELS 3 Xrotation Yrotation Zrotation
											End Site
											{
												OFFSET 1.281006 3.013344 0.375733
											}
										}
									}
								}
								JOINT RightHandPinky1
								{
									OFFSET -10.518692 -0.960396 -5.730441
									CHANNELS 3 Xrotation Yrotation Zrotation
									JOINT RightHandPinky2
									{
										OFFSET -2.861649 0.000000 0.000000
										CHANNELS 3 Xrotation Yrotation Zrotation
										JOINT RightHandPinky3
										{
											OFFSET -2.863380 0.000000 0.000000
											CHANNELS 3 Xrotation Yrotation Zrotation
											End Site
											{
												OFFSET 0.843597 2.711159 0.369971
											}
										}
									}
								}
							}
							JOINT RSleeve
							{
								OFFSET -6.676277 -0.344902 -1.011730
								CHANNELS 3 Xrotation Yrotation Zrotation
								End Site
								{
									OFFSET 0.000000 14.885353 0.000000
								}
							}
						}
					}
				}
				JOINT Backpack
				{
					OFFSET 0.000000 -2.471497 36.677502
					CHANNELS 3 Xrotation Yrotation Zrotation
					End Site
					{
						OFFSET 0.000000 20.427315 0.000000
					}
				}
				JOINT Hood
				{
					OFFSET 0.000000 18.754097 -10.431000
					CHANNELS 3 Xrotation Yrotation Zrotation
					JOINT Hood1
					{
						OFFSET 0.000000 -5.011002 -7.685901
						CHANNELS 3 Xrotation Yrotation Zrotation
						End Site
						{
							OFFSET 0.000000 9.175140 0.000000
						}
					}
				}
				JOINT LHoodieString
				{
					OFFSET 5.250500 16.397697 3.089900
					CHANNELS 3 Xrotation Yrotation Zrotation
					JOINT LHoodieString1
					{
						OFFSET 0.257700 -6.364304 3.694600
						CHANNELS 3 Xrotation Yrotation Zrotation
						JOINT LHoodieString2
						{
							OFFSET 0.000000 -9.643799 2.679100
							CHANNELS 3 Xrotation Yrotation Zrotation
							End Site
							{
								OFFSET 0.000000 10.009018 0.000000
							}
						}
					}
				}
				JOINT RHoodieString
				{
					OFFSET -5.250500 16.397697 3.089900
					CHANNELS 3 Xrotation Yrotation Zrotation
					JOINT RHoodieString1
					{
						OFFSET -0.257700 -6.364304 3.694600
						CHANNELS 3 Xrotation Yrotation Zrotation
						JOINT RHoodieString2
						{
							OFFSET 0.000000 -9.643799 2.679100
							CHANNELS 3 Xrotation Yrotation Zrotation
							End Site
							{
								OFFSET 0.000000 10.009018 0.000000
							}
						}
					}
				}
			}
			JOINT LBackpack_Strap
			{
				OFFSET 15.223200 -7.719803 -6.610900
				CHANNELS 3 Xrotation Yrotation Zrotation
				End Site
				{
					OFFSET 0.000000 16.040596 0.000000
				}
			}
			JOINT RBackpack_Strap
			{
				OFFSET -15.223000 -7.719803 -6.610900
				CHANNELS 3 Xrotation Yrotation Zrotation
				End Site
				{
					OFFSET 0.000000 16.040596 0.000000
				}
			}
		}
	}
	JOINT BoyFacialAnim_Joint
	{
		OFFSET 1.000000 -82.208099 -1.550900
		CHANNELS 3 Xrotation Yrotation Zrotation
		End Site
		{
			OFFSET 0.000000 30.012791 0.000000
		}
	}
}
MOTION
Frames: 4
Frame Time: 0.033333
0.242152 16.605476 2.932518 78.420687 11.802471 3.406843 -0.000001 0.000000 -0.000000 -56.785479 19.039702 51.493295 69.838356 2.528865 6.292070 -42.536793 -13.735236 -29.766118 0.000003 -0.000001 -0.000001 0.000003 -0.000001 -0.000003 0.000000 0.000000 -0.000000 -3.052521 -14.112972 -5.619392 24.377710 -1.359249 -10.745943 -21.243227 -3.499762 6.361536 -0.000000 -0.000000 0.000000 -0.000000 -0.000000 0.000000 -0.000000 -0.000000 0.000001 11.548621 -1.238328 -7.339308 -4.745597 -0.869155 -2.870002 -4.408917 -1.074170 -3.311312 -26.506398 -3.498838 10.752331 -14.047858 -2.808315 1.966138 -0.000002 -0.000000 -0.000000 -0.000002 -0.000000 -0.000000 -0.000002 -0.000000 -0.000000 -49.941988 -20.102825 -5.962676 -63.433271 -13.050768 -80.480843 0.000007 -69.737468 0.000007 -120.397397 -6.288653 -13.734570 4.709222 9.560356 3.111982 19.473190 -1.474915 7.636929 -0.000000 -0.000001 0.000001 -0.212826 3.933725 -36.747125 2.942163 5.078942 -60.144576 -0.000002 0.000000 -0.000002 0.405909 5.507027 -52.453172 3.387135 5.308631 -65.057463 -0.000000 -0.000002 -0.000000 -0.074372 5.736797 -61.061420 4.055044 5.569501 -72.094907 -0.000000 0.000000 -0.000004 -6.565579 4.545141 -72.425250 3.299629 5.267220 -64.107821 0.000002 0.000003 -0.000001 0.000001 -0.000000 0.000000 -14.405868 13.041359 7.818847 -46.787195 9.516240 24.000972 -0.000003 130.081977 0.000004 -8.479427 -12.910155 -1.335884 8.377145 -4.904143 11.021995 21.620221 -18.183878 -18.379213 0.000001 0.000000 0.000002 -0.920014 1.683566 12.434958 0.748102 -2.533478 32.898286 0.000000 0.000000 0.000002 3.413071 -7.186269 51.650242 6.296802 -4.359584 110.634694 0.000005 0.000000 0.000002 -3.349034 -2.600445 57.010558 5.440866 -4.590899 99.698154 -0.000000 0.000003 -0.000001 -3.996438 -3.303935 64.593843 4.058847 -4.618676 82.610516 0.000001 -0.000001 -0.000002 0.000000 -0.000001 -0.000004 0.000000 0.000000 0.000001 0.000000 0.000000 0.000001 0.000000 0.000000 0.000001 0.000000 0.000000 0.000001 0.000000 0.000000 0.000001 0.000000 -0.000001 0.000000 0.000000 0.000000 0.000001 0.000000 0.000000 0.000001 0.000000 -0.000001 0.000000 -0.000000 0.000000 0.000001 -0.000000 0.000000 0.000001 -0.000001 0.000000 -0.000000 
1.991558 16.852989 1.713333 80.577497 3.117995 1.737966 -0.000001 -0.000000 -0.000000 -65.120950 22.436772 60.020499 75.483685 7.258387 8.529641 -41.130279 -24.068916 -20.493516 -0.000000 -0.000000 0.000001 -0.000000 -0.000000 0.000000 -0.000000 0.000001 0.000000 -10.481080 -12.411598 -7.910313 30.607799 2.526586 -9.786549 -24.296120 -3.588558 6.419682 0.000001 0.000000 -0.000000 0.000001 0.000000 -0.000000 0.000001 -0.000001 0.000000 9.964467 4.241878 -6.590565 -4.543019 -0.381042 -2.632487 -4.218359 -0.618368 -3.052070 -26.029704 -3.163064 9.380224 -13.318310 -2.357243 1.156963 0.000002 0.000000 -0.000000 0.000002 0.000000 -0.000000 0.000002 0.000000 -0.000000 -50.011475 -19.234248 -6.712969 -66.912112 -13.539007 -81.875445 0.000023 -65.199394 0.000010 -118.253401 -5.977604 -14.116949 4.709218 9.560356 3.111985 19.473195 -1.474916 7.636928 -0.000000 -0.000000 -0.000001 -0.212828 3.933723 -36.747128 2.942163 5.078943 -60.144576 -0.000002 0.000004 0.000000 0.405905 5.507026 -52.453165 3.387134 5.308630 -65.057463 0.000000 0.000000 -0.000001 -0.074372 5.736797 -61.061420 4.055044 5.569505 -72.094914 0.000001 -0.000001 -0.000002 -6.565581 4.545140 -72.425250 3.299627 5.267225 -64.107828 0.000002 0.000004 0.000002 -0.000000 0.000001 -0.000001 -13.693431 14.513676 4.931173 -49.482508 6.984100 24.486769 0.000030 127.507160 -0.000019 -11.095992 -10.302656 -0.069308 8.377148 -4.904146 11.021997 21.620224 -18.183876 -18.379207 -0.000003 0.000002 0.000000 -0.920017 1.683564 12.434960 0.748101 -2.533479 32.898282 -0.000002 -0.000000 0.000002 3.413072 -7.186273 51.650249 6.296801 -4.359586 110.634701 0.000003 -0.000001 -0.000002 -3.349032 -2.600444 57.010561 5.440866 -4.590901 99.698154 0.000002 0.000000 0.000000 -3.996436 -3.303936 64.593843 4.058849 -4.618676 82.610516 -0.000001 -0.000001 -0.000002 0.000002 -0.000001 -0.000000 -0.000000 -0.000001 -0.000000 -0.000000 -0.000001 -0.000000 -0.000000 -0.000001 -0.000000 -0.000000 -0.000001 -0.000000 -0.000000 -0.000001 -0.000000 -0.000000 -0.000000 0.000000 -0.000000 -0.000001 -0.000000 -0.000000 -0.000001 -0.000000 -0.000000 -0.000000 0.000000 -0.000001 0.000000 -0.000000 -0.000001 0.000000 -0.000000 -0.000001 -0.000000 -0.000000 
3.745379 17.570618 0.548317 82.072694 -5.581498 1.227424 -0.000000 -0.000000 0.000000 -69.922422 29.861307 67.344702 74.243145 6.240999 9.923093 -35.926829 -24.107863 -9.721584 -0.000000 -0.000000 -0.000000 -0.000000 -0.000000 -0.000001 0.000001 -0.000001 0.000001 -16.380491 -10.833462 -9.581044 33.118498 0.884141 -10.159935 -26.100200 -5.217624 12.405084 -0.000003 -0.000002 -0.000001 -0.000003 -0.000002 -0.000001 -0.000001 0.000001 0.000001 8.241903 9.737189 -5.784252 -3.813260 -0.419792 -3.007226 -3.444866 -0.613578 -3.385678 -25.459366 -2.926137 8.280268 -12.468348 -1.200923 -2.737590 0.000000 0.000000 0.000000 0.000000 0.000000 0.000000 0.000000 0.000000 0.000000 -50.198953 -17.428324 -8.616386 -71.547167 -14.916281 -84.018915 0.000007 -57.467156 0.000030 -114.809456 -4.014185 -14.916288 4.709224 9.560355 3.111987 19.473190 -1.474918 7.636928 -0.000000 -0.000000 -0.000000 -0.212823 3.933726 -36.747128 2.942164 5.078941 -60.144576 -0.000002 0.000002 -0.000003 0.405907 5.507028 -52.453169 3.387135 5.308631 -65.057463 0.000001 -0.000001 0.000000 -0.074370 5.736797 -61.061420 4.055047 5.569504 -72.094921 -0.000000 -0.000002 -0.000002 -6.565578 4.545140 -72.425250 3.299629 5.267225 -64.107828 -0.000000 0.000001 0.000002 -0.000000 0.000000 -0.000001 -13.045973 14.886942 3.473063 -49.612763 8.104388 23.552558 0.000017 122.655007 -0.000044 -14.646191 -5.658153 -2.173499 8.377139 -4.904145 11.022003 21.620219 -18.183878 -18.379204 -0.000002 0.000002 -0.000000 -0.920021 1.683564 12.434960 0.748099 -2.533476 32.898279 0.000000 -0.000000 0.000002 3.413071 -7.186272 51.650246 6.296805 -4.359581 110.634694 0.000000 0.000001 -0.000000 -3.349036 -2.600446 57.010558 5.440866 -4.590901 99.698161 -0.000000 0.000001 0.000001 -3.996442 -3.303935 64.593837 4.058851 -4.618676 82.610516 -0.000000 -0.000001 0.000000 -0.000002 -0.000001 -0.000001 -0.000000 0.000000 -0.000000 -0.000000 0.000000 -0.000000 -0.000000 0.000000 -0.000000 -0.000000 0.000000 -0.000000 -0.000000 0.000000 -0.000000 0.000000 0.000000 -0.000000 -0.000000 0.000000 -0.000000 -0.000000 0.000000 -0.000000 0.000000 0.000000 -0.000000 -0.000000 -0.000000 -0.000000 -0.000000 -0.000000 -0.000000 -0.000000 -0.000000 0.000000 
5.992064 18.547905 -0.619232 81.533669 -13.186658 2.219680 -0.000001 0.000000 -0.000000 -72.610935 39.645973 74.741203 69.100928 9.316462 9.950407 -28.880430 -23.222471 -1.214354 -0.000000 0.000000 0.000001 -0.000000 0.000000 0.000001 0.000000 0.000000 0.000000 -19.685160 -9.077551 -12.715950 33.457087 -6.007123 -10.591865 -25.835768 -8.426492 23.258205 -0.000001 0.000001 -0.000000 -0.000001 0.000001 -0.000000 -0.000000 0.000004 -0.000001 9.395263 14.039169 -5.024354 -3.270067 -0.483998 -2.899664 -2.863554 -0.646922 -3.232576 -24.820964 -3.074327 8.130476 -11.615124 -1.638160 -5.799642 0.000004 0.000000 0.000000 0.000004 0.000000 0.000000 0.000004 0.000000 0.000000 -50.393737 -16.863078 -10.330547 -73.926416 -16.208066 -81.833323 -0.000016 -54.064072 -0.000037 -113.145895 -3.862345 -13.958829 4.709220 9.560356 3.111986 19.473190 -1.474917 7.636927 0.000000 -0.000001 0.000001 -0.212826 3.933724 -36.747125 2.942159 5.078942 -60.144576 -0.000001 -0.000001 -0.000002 0.405906 5.507027 -52.453169 3.387138 5.308633 -65.057463 0.000001 -0.000003 -0.000004 -0.074373 5.736797 -61.061420 4.055044 5.569504 -72.094907 -0.000001 0.000002 0.000003 -6.565578 4.545140 -72.425250 3.299628 5.267221 -64.107821 -0.000003 -0.000003 -0.000001 0.000000 0.000001 0.000000 -12.230099 15.823750 2.136811 -49.944491 12.437214 21.437420 0.000004 117.333825 0.000002 -18.714501 -2.041312 -4.502878 8.377141 -4.904146 11.021999 21.620218 -18.183881 -18.379213 -0.000001 0.000001 0.000000 -0.920022 1.683563 12.434964 0.748101 -2.533478 32.898286 0.000001 -0.000000 -0.000000 3.413067 -7.186273 51.650242 6.296803 -4.359585 110.634694 0.000001 0.000001 -0.000000 -3.349036 -2.600446 57.010561 5.440865 -4.590901 99.698154 0.000001 -0.000002 0.000002 -3.996440 -3.303936 64.593843 4.058850 -4.618677 82.610516 0.000001 -0.000000 0.000000 -0.000000 -0.000003 -0.000002 0.000000 -0.000000 0.000000 0.000000 -0.000000 0.000000 0.000000 -0.000000 0.000000 0.000000 -0.000000 0.000000 0.000000 -0.000000 0.000000 0.000000 -0.000000 0.000000 0.000000 -0.000000 0.000000 0.000000 -0.000000 0.000000 0.000000 -0.000000 0.000000 0.000000 -0.000000 -0.000000 0.000000 -0.000000 -0.000000 -0.000001 0.000000 -0.000000 
